<svg xmlns="http://www.w3.org/2000/svg" xmlns:xlink="http://www.w3.org/1999/xlink" width="207.586" height="208.034" viewBox="0 0 207.586 208.034">
  <defs>
    <filter id="Path_31460" x="0" y="0" width="207.586" height="208.034" filterUnits="userSpaceOnUse">
      <feOffset dy="5" input="SourceAlpha"/>
      <feGaussianBlur stdDeviation="2.5" result="blur"/>
      <feFlood flood-opacity="0.161"/>
      <feComposite operator="in" in2="blur"/>
      <feComposite in="SourceGraphic"/>
    </filter>
  </defs>
  <g transform="matrix(1, 0, 0, 1, 0, 0)" filter="url(#Path_31460)">
    <path id="Path_31460-2" data-name="Path 31460" d="M412.045,242.228Zm-14.879,4.735,14.767-4.679a95.749,95.749,0,0,1,.246,58.209l-14.565-4.635a82.116,82.116,0,0,1-5.352,12.85l13.629,7.089a96.019,96.019,0,0,1-41.257,41.223l-7.061-13.651a81.493,81.493,0,0,1-12.94,5.341l4.556,14.4-.039.011a95.932,95.932,0,0,1-58.215.106l4.635-14.542a81.378,81.378,0,0,1-12.856-5.341l-7.072,13.64a95.98,95.98,0,0,1-41.229-41.235l13.679-7.083a81.923,81.923,0,0,1-5.318-13.024l-14.29,4.5h0c-5.6-19.082-6.254-39.116-.23-58.125l14.43,4.663a82.075,82.075,0,0,1,5.329-12.856l-13.64-7.072a96.006,96.006,0,0,1,41.206-41.268l7.078,13.646a81.244,81.244,0,0,1,12.934-5.352l-4.55-14.4.112-.034-.039-.129a95.68,95.68,0,0,1,58.136-.056l-4.64,14.593a81.526,81.526,0,0,1,12.873,5.335l7.027-13.635a95.926,95.926,0,0,1,41.206,41.206L392,233.783a59.189,59.189,0,0,1,5.161,13.181Zm-6.557,2.029a73.883,73.883,0,1,0-48.212,92.7A73.889,73.889,0,0,0,390.609,248.992Zm-136.363,41.3h11.785V246.022h3.362v44.272h3.362V285.81h6.008l.885-31.943H278.36v-6.725h1.457l.375-13.45H278.36v-5.044h1.978l.084-3.923h6.59l.084,3.923h1.345v5.044h-1.2l.376,13.45h1.39v6.725h-1.216l.885,31.943h3.71l.885-31.943h-.9v-6.725h1.07l.375-13.45H292.37v-5.044h1.592l.084-3.923h6.59l.084,3.923h1.737v5.044h-1.586l.376,13.45h1.771v6.725h-1.6l.314,10.087h7.453v-1.407a5.334,5.334,0,0,1,5.3-5.492,4.26,4.26,0,0,1,3.1,1.1V253.1a7.13,7.13,0,0,1,7.128-7.05,7.2,7.2,0,0,1,7.067,6.136h8c.448-5.044.729-10.087.729-16.252h14.318c0,6.164.28,11.208.729,16.252H374.75v38.107h11.258a68.548,68.548,0,0,1-131.762,0Zm116.02-22.416H357.68c1.4,7.846,2.981,13.45,3.962,17.933h5.823v4.483h2.8ZM355.9,255.549c.342,3.362.745,6.164,1.182,8.406h13.181v-8.406Zm-23.744,8.406h6.08c.437-2.242.841-5.044,1.182-8.406h-7.263Zm0,21.856h1.519c.986-4.483,2.572-10.087,3.968-17.933h-5.486ZM301.83,267.878l.471,17.933h6.882V267.878Z" transform="translate(-216.5 -172.16)" fill="#fff"/>
  </g>
</svg>
